<svg width="1920" height="1757" viewBox="0 0 1920 1757" fill="none" xmlns="http://www.w3.org/2000/svg">
<path d="M1560 1500.06C1683.52 1500.06 1932.61 1616.2 1928 1756.88" stroke="black" stroke-width="1.5"/>
<path d="M599.445 989.405C639.626 989.405 672.199 956.832 672.199 916.651C672.199 876.47 639.626 843.897 599.445 843.897C559.264 843.897 526.691 876.47 526.691 916.651C526.691 956.832 559.264 989.405 599.445 989.405Z" fill="#EDEEEF"/>
<path fill-rule="evenodd" clip-rule="evenodd" d="M599.445 989.405C639.626 989.405 672.199 956.832 672.199 916.651C672.199 876.47 639.626 843.897 599.445 843.897C559.264 843.897 526.691 876.47 526.691 916.651C526.691 956.832 559.264 989.405 599.445 989.405Z" stroke="black" stroke-width="1.5"/>
<rect x="572.997" y="825.532" width="52.8956" height="182.238" fill="#EDEEEF"/>
<path d="M507.309 893.996L533.757 848.187L691.58 939.306L665.132 985.115L507.309 893.996Z" fill="#EDEEEF"/>
<path d="M533.757 985.115L507.309 939.306L665.132 848.187L691.58 893.996L533.757 985.115Z" fill="#EDEEEF"/>
<path d="M599.445 934.84C609.49 934.84 617.633 926.696 617.633 916.651C617.633 906.606 609.49 898.463 599.445 898.463C589.4 898.463 581.256 906.606 581.256 916.651C581.256 926.696 589.4 934.84 599.445 934.84Z" fill="#DC911B"/>
<path d="M581.257 916.651C581.257 906.606 589.4 898.463 599.445 898.463" stroke="black" stroke-width="1.5"/>
<path d="M541.202 1120.31C534.933 1054.76 496.005 957.779 496.005 957.779L461.976 936.777L465.737 989.214L470.808 1039.27L513.844 1136.08L553.172 1123.73L541.202 1120.31Z" fill="#E2E2E2"/>
<path d="M485.864 944.945C485.864 944.945 493.535 1070.15 471.869 1129.43L476.395 1136.08H437.859C437.859 1136.08 433.649 976.826 433.649 942.453L485.864 944.945Z" fill="#EDEEEF"/>
<path d="M472.184 848.073V864.345L452.027 869.299V841.84L472.184 836.885V848.073Z" fill="#EDEEEF"/>
<path d="M460.797 853.703C461.095 853.703 461.336 853.461 461.336 853.164C461.336 852.866 461.095 852.625 460.797 852.625C460.499 852.625 460.258 852.866 460.258 853.164C460.258 853.461 460.499 853.703 460.797 853.703Z" fill="black"/>
<path d="M469.075 853.703C469.373 853.703 469.614 853.461 469.614 853.164C469.614 852.866 469.373 852.625 469.075 852.625C468.778 852.625 468.536 852.866 468.536 853.164C468.536 853.461 468.778 853.703 469.075 853.703Z" fill="black"/>
<path d="M466.646 856.379V848.073H470.807" stroke="black" stroke-width="1.5"/>
<path d="M459.782 848.073H463.943" stroke="black" stroke-width="1.5"/>
<path d="M453.354 852.329V855.213C451.798 855.213 450.537 853.952 450.537 852.396C450.537 852.309 450.541 852.224 450.548 852.139C450.706 850.39 453.354 850.572 453.354 852.329Z" fill="#EDEEEF"/>
<path d="M453.354 855.213C451.798 855.213 450.537 853.952 450.537 852.396" stroke="black" stroke-width="1.5"/>
<path d="M464.827 858.426C463.252 858.426 461.976 857.15 461.976 855.575" stroke="#FF6498" stroke-width="1.5" stroke-linecap="round" stroke-linejoin="round"/>
<path d="M472.184 864.345L452.026 869.299" stroke="black" stroke-width="1.5"/>
<path d="M466.647 856.385L464.827 856.833" stroke="black" stroke-width="1.5" stroke-linecap="round"/>
<path d="M472.868 841.01C472.868 841.01 467.849 844.747 457.842 843.607C457.842 843.607 457.842 850.205 454.295 852.226" stroke="black" stroke-width="1.5"/>
<path d="M472.868 849.497C472.868 849.497 481.043 838.857 469.221 835.88C457.398 832.904 451.952 838.73 451.952 838.73C451.952 838.73 440.769 840.567 452.63 861.024" stroke="black" stroke-width="1.5"/>
<path d="M433.649 898.437V942.453L496.004 957.779V908.757C496.004 891.374 484.137 876.237 467.257 872.089H467.257C459.162 870.099 450.602 871.941 444.041 877.084C437.481 882.227 433.649 890.101 433.649 898.437V898.437Z" fill="#DC911B"/>
<path d="M485.864 944.945C485.864 944.945 493.535 1070.15 471.869 1129.43" stroke="black" stroke-width="1.5"/>
<path d="M440.195 880.757C440.195 880.757 406.223 925.829 420.185 952.414C434.147 978.999 501.505 938.987 502.265 931.894C503.025 924.8 487.183 928.6 487.183 928.6C487.183 928.6 489.092 915.68 480.985 928.347L450.537 931.64L460.416 907.827" stroke="black" stroke-width="1.5"/>
<path d="M453.851 923.652L450.537 931.64L473.362 929.172C468.056 926.391 461.332 924.43 453.851 923.652Z" fill="black"/>
<path d="M433.838 961.144C433.89 964.545 433.951 968.214 434.02 972.106C450.106 971.974 471.023 963.275 480.464 953.959L480.468 953.96C480.588 953.841 480.703 953.722 480.82 953.604C480.851 953.572 480.882 953.54 480.913 953.509C481.072 953.345 481.226 953.182 481.378 953.018C481.405 952.988 481.433 952.959 481.46 952.929C481.613 952.763 481.76 952.597 481.905 952.43C481.929 952.403 481.953 952.377 481.976 952.35C482.122 952.18 482.263 952.011 482.4 951.842C482.42 951.818 482.44 951.794 482.459 951.77C482.599 951.597 482.734 951.423 482.865 951.25C482.88 951.231 482.895 951.211 482.91 951.191C483.043 951.014 483.171 950.837 483.294 950.66C483.305 950.644 483.316 950.629 483.327 950.613C483.452 950.432 483.572 950.252 483.686 950.071C483.694 950.059 483.702 950.047 483.71 950.035C483.827 949.851 483.938 949.667 484.044 949.483L484.058 949.459C484.165 949.272 484.266 949.085 484.362 948.899L484.37 948.884C484.467 948.694 484.558 948.505 484.642 948.316L484.645 948.311C485.088 947.359 485.363 946.338 485.458 945.293C470.457 954.034 448.639 963.142 433.838 961.144Z" fill="black"/>
<path d="M477.869 928.684L478.371 927.147C479.589 923.424 482.772 920.684 486.635 920.034L507.555 916.517C510.936 915.949 514.276 917.72 515.702 920.837V920.837C515.771 920.987 515.931 921.074 516.094 921.05L559.772 914.535L560.323 912.663C560.553 911.884 561.315 911.388 562.12 911.494L570.962 912.653C571.734 912.755 572.312 913.413 572.312 914.192V915.257C572.312 915.894 571.922 916.467 571.329 916.701L563.877 919.635C562.867 920.032 561.716 919.726 561.038 918.878L560.152 917.77L516.441 925.339C516.328 925.359 516.23 925.429 516.176 925.531L516.012 925.84C513.169 931.185 508.041 934.94 502.088 936.036L498.069 936.777" stroke="black" stroke-width="1.5"/>
<path d="M475.622 875.23C475.622 875.23 493.462 882.81 519.682 920.008" stroke="black" stroke-width="1.5"/>
<path d="M496.004 946.334C496.004 946.334 526.331 956.974 534.691 949.12C543.052 941.267 545.585 920.008 545.585 920.008" stroke="black" stroke-width="1.5"/>
<path d="M545.585 916.651C545.585 916.651 547.422 898.39 547.232 893.07C547.232 893.07 550.371 894.78 553.171 893.83C553.171 893.83 555.021 896.87 556.351 896.68C557.681 896.49 557.111 890.22 551.981 883.76C546.851 877.3 523.999 877.342 517.28 916.651" stroke="black" stroke-width="1.5"/>
<path d="M443.34 1092.86C441.681 1088.21 436.82 1094.35 436.82 1094.35C436.82 1094.35 442.677 1081.91 436.82 1079.09C433.932 1077.69 432.411 1079.33 431.612 1081.35C434.609 1063.26 435.255 1028.37 423.161 1027.15C409.95 1025.82 414.47 1059.34 414.47 1059.34C414.47 1059.34 410.82 1049.72 406.174 1054.03C401.528 1058.35 410.488 1086.55 410.488 1086.55C409.492 1083.57 404.183 1081.24 402.192 1086.55C400.201 1091.86 407.833 1103.14 407.833 1103.14L434.049 1107.46C434.049 1107.46 445 1097.5 443.34 1092.86Z" fill="black"/>
<path d="M441.39 1135.34H403.851L395.55 1101.79H449.691L441.39 1135.34Z" fill="#DC911B"/>
<path d="M362 1135.34H487.183" stroke="black" stroke-width="1.5"/>
<path d="M395.55 1101.79H449.691" stroke="black" stroke-width="1.5"/>
<path d="M744.915 1135.33H607.196L659.997 1017.8H744.915V1135.33Z" fill="black"/>
<rect x="550.229" y="1118.54" width="89.8164" height="16.7906" fill="#EDEEEF"/>
<rect x="565.226" y="1101.75" width="89.8165" height="16.7908" fill="#EDEEEF"/>
<rect x="580.223" y="1084.96" width="89.8165" height="16.7908" fill="#EDEEEF"/>
<rect x="595.22" y="1068.17" width="89.8164" height="16.7906" fill="#EDEEEF"/>
<rect x="610.218" y="1051.38" width="89.8165" height="16.7907" fill="#EDEEEF"/>
<rect x="625.215" y="1034.59" width="89.8163" height="16.7907" fill="#EDEEEF"/>
<rect x="640.212" y="1017.8" width="89.8164" height="16.7907" fill="#EDEEEF"/>
<path d="M550.23 1118.54H640.046V1135.33H550.23" stroke="black" stroke-width="1.5"/>
<path d="M565.227 1101.75H655.043V1118.54H565.227" stroke="black" stroke-width="1.5"/>
<path d="M580.224 1084.96H670.04V1101.75H580.224" stroke="black" stroke-width="1.5"/>
<path d="M595.22 1068.17H685.037V1084.96H595.22" stroke="black" stroke-width="1.5"/>
<path d="M610.218 1051.38H700.034V1068.17H610.218" stroke="black" stroke-width="1.5"/>
<path d="M625.215 1034.59H715.031V1051.38" stroke="black" stroke-width="1.5"/>
<path d="M640.212 1017.8H730.028V1034.59H640.212" stroke="black" stroke-width="1.5"/>
<path d="M544.901 1135.34H750.244" stroke="black" stroke-width="1.5"/>
<path d="M728.83 31.1305C699.067 31.1305 673.598 18.404 663.125 0.376817C652.652 18.404 627.183 31.1305 597.42 31.1305C593.135 31.132 588.853 30.8635 584.602 30.3265V128.734C584.602 152.014 597.022 173.526 617.183 185.166L663.125 211.691L709.067 185.166C729.228 173.526 741.648 152.014 741.648 128.734V30.3265C737.397 30.8635 733.115 31.132 728.83 31.1305Z" fill="#EDEEEF"/>
<path d="M709.068 185.166C729.229 173.526 741.649 152.014 741.648 128.734V30.3265C737.397 30.8634 733.116 31.132 728.83 31.1305C699.068 31.1305 673.598 18.404 663.125 0.37674V211.691L709.068 185.166Z" fill="#D6D6D6"/>
<path d="M663.125 211.691L709.068 185.166C729.229 173.526 741.649 152.014 741.648 128.734V30.3265C737.397 30.8634 733.116 31.132 728.83 31.1305C699.068 31.1305 673.598 18.404 663.125 0.37674" stroke="black" stroke-width="1.5"/>
<path d="M598.69 303.204H574.918V293.147H550.629V281.26L532.541 265.258H505.151V219.083H469.492V161.935L424.532 201.71V277.602H400.759V311.22H390.94V301.833H373.37V320.607H610.576V313.72L598.69 303.204Z" fill="#F4F4F4"/>
<path d="M362 320.607H621.946" stroke="black" stroke-width="1.5"/>
<rect x="472.242" y="230.651" width="3.24777" height="2.87314" fill="white"/>
<rect x="480.144" y="230.651" width="3.24777" height="2.87314" fill="white"/>
<rect x="488.048" y="230.651" width="3.24774" height="2.87314" fill="white"/>
<rect x="472.242" y="238.398" width="3.24777" height="2.87323" fill="white"/>
<rect x="480.144" y="238.398" width="3.24777" height="2.87323" fill="white"/>
<rect x="488.048" y="238.398" width="3.24774" height="2.87323" fill="white"/>
<rect x="472.242" y="246.144" width="3.24777" height="2.87314" fill="white"/>
<rect x="480.144" y="246.144" width="3.24777" height="2.87314" fill="white"/>
<rect x="488.048" y="246.144" width="3.24774" height="2.87314" fill="white"/>
<rect x="472.242" y="253.891" width="3.24777" height="2.87311" fill="white"/>
<rect x="480.144" y="253.891" width="3.24777" height="2.87311" fill="white"/>
<rect x="488.048" y="253.891" width="3.24774" height="2.87311" fill="white"/>
<rect x="472.242" y="261.638" width="3.24777" height="2.87317" fill="white"/>
<rect x="480.144" y="261.638" width="3.24777" height="2.87317" fill="white"/>
<rect x="488.048" y="261.638" width="3.24774" height="2.87317" fill="white"/>
<rect x="472.242" y="269.384" width="3.24777" height="2.8732" fill="white"/>
<rect x="480.144" y="269.384" width="3.24777" height="2.8732" fill="white"/>
<rect x="488.048" y="269.384" width="3.24774" height="2.8732" fill="white"/>
<rect x="472.242" y="277.131" width="3.24777" height="2.8732" fill="white"/>
<rect x="480.144" y="277.131" width="3.24777" height="2.8732" fill="white"/>
<rect x="488.048" y="277.131" width="3.24774" height="2.8732" fill="white"/>
<rect x="472.242" y="284.878" width="3.24777" height="2.87314" fill="white"/>
<rect x="480.144" y="284.878" width="3.24777" height="2.87314" fill="white"/>
<rect x="488.048" y="284.878" width="3.24774" height="2.87314" fill="white"/>
<rect x="472.242" y="292.625" width="3.24777" height="2.8732" fill="white"/>
<rect x="480.144" y="292.625" width="3.24777" height="2.8732" fill="white"/>
<rect x="488.048" y="292.625" width="3.24774" height="2.8732" fill="white"/>
<path d="M542.05 130.735L511.782 126.031C511.782 126.031 489.479 232.441 501.448 311.827L497.918 319.657H538.02L549.407 198.568L542.05 130.735Z" fill="#E2E2E2"/>
<path d="M521.922 128.523C521.922 128.523 514.251 253.728 535.917 313.008L531.392 319.657H569.927C569.927 319.657 574.137 160.404 574.137 126.031L521.922 128.523Z" fill="#EDEEEF"/>
<path d="M521.922 128.523C521.922 128.523 514.251 253.728 535.917 313.008L531.392 319.657" stroke="black" stroke-width="1.5"/>
<path d="M549.407 31.6506V47.9222L529.249 52.8764V25.4171L549.407 20.4629V31.6506Z" fill="#EDEEEF"/>
<path d="M538.02 37.2802C538.318 37.2802 538.559 37.0389 538.559 36.7412C538.559 36.4436 538.318 36.2023 538.02 36.2023C537.723 36.2023 537.481 36.4436 537.481 36.7412C537.481 37.0389 537.723 37.2802 538.02 37.2802Z" fill="black"/>
<path d="M546.298 37.2802C546.596 37.2802 546.837 37.0389 546.837 36.7412C546.837 36.4436 546.596 36.2023 546.298 36.2023C546 36.2023 545.759 36.4436 545.759 36.7412C545.759 37.0389 546 37.2802 546.298 37.2802Z" fill="black"/>
<path d="M543.869 39.9564V31.6506H548.03" stroke="black" stroke-width="1.5"/>
<path d="M537.005 31.6506H541.166" stroke="black" stroke-width="1.5"/>
<path d="M530.577 35.9062V38.7906C529.021 38.7906 527.76 37.5293 527.76 35.9734C527.76 35.887 527.764 35.8015 527.772 35.717C527.93 33.9676 530.577 34.1498 530.577 35.9062Z" fill="#EDEEEF"/>
<path d="M530.577 38.7906C529.021 38.7906 527.76 37.5293 527.76 35.9734" stroke="black" stroke-width="1.5"/>
<path d="M542.05 42.0039C540.475 42.0039 539.198 40.7273 539.198 39.1526" stroke="#DC911B" stroke-width="1.5" stroke-linecap="round" stroke-linejoin="round"/>
<path d="M549.407 47.922L529.25 52.8763" stroke="black" stroke-width="1.5"/>
<path d="M543.87 39.9629L542.05 40.4102" stroke="black" stroke-width="1.5" stroke-linecap="round"/>
<path d="M511.782 82.0141V126.031L574.137 141.357V92.3341C574.137 74.9516 562.27 59.8149 545.39 55.666H545.39C537.295 53.6764 528.735 55.5184 522.174 60.6615C515.614 65.8047 511.782 73.678 511.782 82.0141L511.782 82.0141Z" fill="#DC911B"/>
<path d="M549.407 30.2905C549.407 29.6048 556.848 17.4448 538.559 17.1914C520.27 16.9381 529.169 34.4932 529.169 34.4932" stroke="black" stroke-width="1.5"/>
<path d="M530.577 32.4231C530.577 32.4231 533.253 28.4331 533.443 26.8181C533.443 26.8181 546.528 27.0081 548.678 23.9681" stroke="black" stroke-width="1.5"/>
<path d="M527.947 68.0241L519.004 114.598L522.297 123.212L530.577 116.118L530.024 68.3647L532.937 64.1847H525.97L527.947 68.0241Z" fill="black"/>
<path d="M561.545 64.1848C561.545 64.1848 635.283 135.878 555.863 181.098L547.37 167.798L564.603 123.211L548.03 100.158" stroke="black" stroke-width="1.5"/>
<path d="M555.864 181.098L539.363 155.258" stroke="black" stroke-width="1.5"/>
<path d="M516.619 66.5364C516.619 66.5364 480.429 122.659 505.163 165.242" stroke="black" stroke-width="1.5"/>
<path d="M630.862 110.425L635.564 105.723L659.555 129.713L654.853 134.415L630.862 110.425Z" fill="#DC911B"/>
<path d="M702.211 77.6524L706.913 82.3546L654.853 134.415L650.15 129.713L702.211 77.6524Z" fill="#DC911B"/>
<path d="M431.121 2.17047C420.105 2.1509 411.16 11.0649 411.14 22.0806L451.031 22.1515C451.051 11.1359 442.137 2.19007 431.121 2.17047Z" fill="#EDEEEF"/>
<path d="M472.672 10.8185C466.391 10.8073 461.291 15.8895 461.28 22.1698L484.023 22.2103C484.028 19.1944 482.835 16.2998 480.707 14.1634C478.578 12.0271 475.688 10.8239 472.672 10.8185Z" fill="#EDEEEF"/>
<path d="M451.068 1.29416C439.549 1.2737 430.194 10.5953 430.174 22.1145L471.888 22.1887C471.909 10.6694 462.587 1.31465 451.068 1.29416Z" fill="#EDEEEF"/>
<path d="M407.475 22.0741L489.464 22.22" stroke="black" stroke-width="1.5"/>
<path d="M471.596 45.8803C480.726 45.8641 488.141 53.2527 488.158 62.3833L455.093 62.4421C455.076 53.3115 462.465 45.8965 471.596 45.8803Z" fill="#EDEEEF"/>
<path d="M437.155 53.0484C442.361 53.0391 446.588 57.2516 446.598 62.4572L427.746 62.4907C427.742 59.9909 428.731 57.5917 430.495 55.8209C432.26 54.0501 434.655 53.0528 437.155 53.0484Z" fill="#EDEEEF"/>
<path d="M455.062 45.1539C464.61 45.1369 472.364 52.8633 472.381 62.4113L437.804 62.4728C437.787 52.9248 445.514 45.1709 455.062 45.1539Z" fill="#EDEEEF"/>
<path d="M491.195 62.3779L423.236 62.4988" stroke="black" stroke-width="1.5"/>
<path d="M685.927 237.746C683.264 235.3 681.238 232.242 680.022 228.836C677.005 220.499 669.088 214.944 660.221 214.944C651.354 214.944 643.437 220.499 640.419 228.836C639.204 232.242 637.177 235.3 634.515 237.746C627.579 244.071 625.667 254.222 629.825 262.637C633.984 271.051 643.21 275.698 652.447 274.03C657.588 273.101 662.853 273.101 667.994 274.03C677.234 275.707 686.468 271.062 690.628 262.643C694.789 254.224 692.871 244.068 685.927 237.746H685.927Z" fill="#DC911B"/>
<path d="M652.447 274.03C657.588 273.101 662.853 273.101 667.994 274.03C674.135 275.138 680.451 273.468 685.241 269.469C690.031 265.47 692.802 259.553 692.807 253.313" stroke="black" stroke-width="1.5"/>
<path d="M618.054 320.607H702.387" stroke="black" stroke-width="1.5"/>
<path d="M660.221 259.421V320.607" stroke="black" stroke-width="1.5"/>
<path d="M669.152 250.49L660.221 259.422L651.289 250.49" stroke="black" stroke-width="1.5"/>
<path d="M624.949 274.279C623.46 272.911 622.327 271.201 621.648 269.297C619.96 264.636 615.534 261.53 610.576 261.53C605.619 261.53 601.192 264.636 599.505 269.297C598.826 271.201 597.693 272.911 596.204 274.279C592.326 277.815 591.257 283.491 593.582 288.195C595.907 292.9 601.066 295.498 606.23 294.565C609.104 294.046 612.048 294.046 614.923 294.565C620.089 295.503 625.251 292.906 627.578 288.199C629.904 283.492 628.831 277.813 624.949 274.279Z" fill="#DC911B"/>
<path d="M606.23 294.565C609.104 294.046 612.048 294.046 614.923 294.565C618.356 295.185 621.888 294.251 624.566 292.015C627.244 289.779 628.793 286.471 628.796 282.982" stroke="black" stroke-width="1.5"/>
<path d="M610.577 286.398V320.607" stroke="black" stroke-width="1.5"/>
<path d="M615.57 281.404L610.576 286.398L605.583 281.404" stroke="black" stroke-width="1.5"/>
<path d="M1299.38 530.272L1267.25 520.048L1266.23 723.898H1303.37L1299.38 714.978C1317.34 650.572 1299.38 530.272 1299.38 530.272Z" fill="#DC911B"/>
<path d="M1290.1 655.593C1290.1 607.848 1280.41 569.143 1268.45 569.143C1267.96 569.145 1267.47 569.212 1267 569.34L1266.23 723.898H1281.72C1286.82 708.082 1290.1 683.369 1290.1 655.593Z" fill="black"/>
<path d="M1288.78 532.764C1288.78 532.764 1296.46 657.969 1274.79 717.249L1279.32 723.898H1240.78C1240.78 723.898 1237.02 570.582 1237.02 536.209L1288.78 532.764Z" fill="#DC911B"/>
<path d="M1280.6 435.892V452.163L1260.44 457.118V429.658L1280.6 424.704V435.892Z" fill="#EDEEEF"/>
<path d="M1267.25 444.408C1267.25 444.408 1272.16 442.793 1273.77 445.263C1273.77 445.263 1275.82 442.965 1278.46 444.819" stroke="#DC911B" stroke-width="1.5" stroke-linecap="round" stroke-linejoin="round"/>
<path d="M1269.21 441.521C1269.51 441.521 1269.75 441.28 1269.75 440.982C1269.75 440.685 1269.51 440.443 1269.21 440.443C1268.92 440.443 1268.68 440.685 1268.68 440.982C1268.68 441.28 1268.92 441.521 1269.21 441.521Z" fill="black"/>
<path d="M1277.49 441.521C1277.79 441.521 1278.03 441.28 1278.03 440.982C1278.03 440.685 1277.79 440.443 1277.49 440.443C1277.2 440.443 1276.95 440.685 1276.95 440.982C1276.95 441.28 1277.2 441.521 1277.49 441.521Z" fill="black"/>
<path d="M1275.06 444.198V435.892H1279.23" stroke="black" stroke-width="1.5"/>
<path d="M1268.2 435.892H1272.36" stroke="black" stroke-width="1.5"/>
<path d="M1279.87 434.532H1279.87" stroke="black" stroke-width="1.5"/>
<path d="M1261.77 440.147V443.032C1260.22 443.032 1258.95 441.77 1258.95 440.215C1258.95 440.128 1258.96 440.043 1258.97 439.958C1259.12 438.209 1261.77 438.391 1261.77 440.147Z" fill="#EDEEEF"/>
<path d="M1261.77 443.032C1260.22 443.032 1258.95 441.77 1258.95 440.215" stroke="black" stroke-width="1.5"/>
<path d="M1272.62 446.245C1271.74 446.245 1271.02 445.531 1271.02 444.651" stroke="#DC911B" stroke-width="1.5" stroke-linecap="round" stroke-linejoin="round"/>
<path d="M1266.23 455.696L1260.44 457.117" stroke="black" stroke-width="1.5"/>
<path d="M1275.06 444.204L1273.24 444.651" stroke="black" stroke-width="1.5" stroke-linecap="round"/>
<path d="M1299.38 486.255V530.272L1237.02 545.598V496.575C1237.02 479.193 1248.89 464.056 1265.77 459.907H1265.77C1273.86 457.917 1282.42 459.759 1288.98 464.903C1295.55 470.046 1299.38 477.919 1299.38 486.255L1299.38 486.255Z" fill="#EDEEEF"/>
<path d="M1262.76 440.982C1262.76 440.982 1259.72 450.962 1266.82 456.156C1273.42 460.991 1283.83 458.16 1281.37 446.85C1280.86 444.49 1280.6 442.081 1280.6 439.666V438.992" stroke="#DC911B" stroke-width="1.5" stroke-linecap="round" stroke-linejoin="round"/>
<path d="M1260.36 438.736C1260.36 438.736 1253.66 426.456 1263.98 424.243C1263.98 424.243 1268.18 418.999 1274.15 421.539C1280.13 424.08 1283 422.296 1283.08 424.704C1283.16 427.112 1283.45 431.127 1280.6 433.176" stroke="#DC911B" stroke-width="1.5" stroke-linecap="round" stroke-linejoin="round"/>
<path d="M1264.54 438.734L1266.23 431.836C1266.23 431.836 1278.55 432.026 1280.6 428.669" stroke="#DC911B" stroke-width="1.5" stroke-linecap="round" stroke-linejoin="round"/>
<path d="M1288.78 532.764C1288.78 532.764 1296.46 657.969 1274.79 717.249L1279.32 723.898" stroke="black" stroke-width="1.5"/>
<path d="M1249.8 468.258C1249.8 468.258 1239.33 509.609 1252 525.063C1264.66 540.516 1323.94 531.396 1341.17 514.676C1341.17 514.676 1347.25 513.156 1348.52 510.116C1348.52 510.116 1354.34 514.423 1354.09 511.636C1353.84 508.849 1351.81 500.165 1341.42 502.354C1331.04 504.543 1280.6 505.556 1280.6 505.556L1281.74 483.769" stroke="black" stroke-width="1.5"/>
<path d="M1296.5 474.065C1296.5 474.065 1304.12 488.832 1303.14 504.921" stroke="black" stroke-width="1.5"/>
<path d="M1300.67 539.817C1300.67 539.817 1320.96 547.878 1329.55 522.284" stroke="black" stroke-width="1.5"/>
<path d="M1310.02 504.662C1310.02 504.662 1331.53 493.554 1334.84 498.209L1338.14 502.865" stroke="black" stroke-width="1.5"/>
<path d="M1511.02 420.845H1372.62V509.218L1328.12 553.721V723.898H1310.02" stroke="black" stroke-width="1.5"/>
<path d="M1333.03 724.848H1568.98" stroke="black" stroke-width="1.5"/>
<path d="M1541.07 722.992C1541.07 722.992 1545.14 715.799 1534.82 714.235C1528.68 713.287 1522.41 714.044 1516.68 716.424C1516.68 716.424 1523.87 707.667 1512.61 703.914C1501.35 700.162 1489.78 708.918 1489.78 708.918C1489.78 708.918 1501.04 687.965 1492.28 686.401C1483.53 684.837 1478.84 693.907 1478.84 693.907C1478.84 693.907 1479.78 667.95 1461.64 667.324C1443.5 666.699 1445.37 700.474 1445.37 700.474C1445.37 700.474 1437.56 685.463 1424.42 684.837C1411.29 684.212 1417.85 709.983 1417.85 709.983C1417.85 709.983 1415.35 703.914 1406.59 703.289C1397.84 702.663 1398.46 710.003 1398.46 710.003C1398.46 710.003 1387.2 694.22 1374.69 695.158C1362.19 696.096 1367.5 711.733 1367.5 711.733C1354.68 710.795 1351.86 724.848 1351.86 724.848H1550.14L1541.07 722.992Z" fill="black"/>
<rect x="1378.62" y="570.74" width="152.029" height="88.7808" fill="black"/>
<rect x="1358.99" y="551.107" width="152.029" height="88.7808" fill="#EDEEEF"/>
<path d="M1511.02 551.155V639.936L1358.99 639.84" stroke="black" stroke-width="1.5"/>
<path d="M1376.13 628.518C1379.28 628.518 1381.83 625.966 1381.83 622.817C1381.83 619.668 1379.28 617.115 1376.13 617.115C1372.98 617.115 1370.43 619.668 1370.43 622.817C1370.43 625.966 1372.98 628.518 1376.13 628.518Z" fill="#D6D6D6"/>
<path d="M1493.88 573.879C1497.03 573.879 1499.58 571.326 1499.58 568.177C1499.58 565.029 1497.03 562.476 1493.88 562.476C1490.73 562.476 1488.18 565.029 1488.18 568.177C1488.18 571.326 1490.73 573.879 1493.88 573.879Z" fill="#D6D6D6"/>
<path d="M1493.88 628.518C1497.03 628.518 1499.58 625.966 1499.58 622.817C1499.58 619.668 1497.03 617.115 1493.88 617.115C1490.73 617.115 1488.18 619.668 1488.18 622.817C1488.18 625.966 1490.73 628.518 1493.88 628.518Z" fill="#D6D6D6"/>
<path d="M1376.13 573.879C1379.28 573.879 1381.83 571.326 1381.83 568.177C1381.83 565.029 1379.28 562.476 1376.13 562.476C1372.98 562.476 1370.43 565.029 1370.43 568.177C1370.43 571.326 1372.98 573.879 1376.13 573.879Z" fill="#D6D6D6"/>
<rect x="1324.91" y="1258.21" width="234.172" height="145.31" fill="#EDEEEF"/>
<rect x="1389.33" y="1250.26" width="105.332" height="18.4989" fill="#FF6498"/>
<path d="M1441.99 1257.81C1445.94 1257.81 1449.14 1254.62 1449.14 1250.68C1449.14 1246.75 1445.94 1243.56 1441.99 1243.56C1438.05 1243.56 1434.85 1246.75 1434.85 1250.68C1434.85 1254.62 1438.05 1257.81 1441.99 1257.81Z" fill="#FF6498"/>
<rect x="1389.33" y="1250.26" width="105.332" height="18.4989" fill="#DC911B"/>
<path d="M1441.99 1257.81C1445.94 1257.81 1449.14 1254.62 1449.14 1250.68C1449.14 1246.75 1445.94 1243.56 1441.99 1243.56C1438.05 1243.56 1434.85 1246.75 1434.85 1250.68C1434.85 1254.62 1438.05 1257.81 1441.99 1257.81Z" fill="#DC911B"/>
<path d="M1494.66 1250.26V1268.76H1389.33" stroke="black" stroke-width="1.5" stroke-linecap="round" stroke-linejoin="round"/>
<path d="M1559.08 1258.21V1403.52H1324.91" stroke="black" stroke-width="1.5" stroke-linecap="round" stroke-linejoin="round"/>
<path d="M1315.25 1500.22H1568.74" stroke="black" stroke-width="1.5" stroke-linecap="round" stroke-linejoin="round"/>
<path d="M1379.54 1403.52L1341.24 1500.22" stroke="black" stroke-width="1.5" stroke-linecap="round" stroke-linejoin="round"/>
<path d="M1504.44 1403.52L1542.75 1500.22" stroke="black" stroke-width="1.5" stroke-linecap="round" stroke-linejoin="round"/>
<path d="M1353.24 1466.68H1530.74" stroke="black" stroke-width="1.5" stroke-linecap="round" stroke-linejoin="round"/>
<path d="M1216.74 1306.02L1235.65 1302.38C1226.91 1308.16 1226.65 1308.38 1217.1 1316.61L1216.74 1316.92C1216.74 1311.7 1216.74 1309.33 1216.74 1306.02Z" fill="black"/>
<path d="M1266.46 1434.94L1216.74 1412.35C1216.74 1412.35 1218.26 1399.88 1216.74 1381.86L1235.01 1378.85L1234.86 1391.18L1294.11 1423.73L1266.46 1434.94Z" fill="black"/>
<path d="M1216.74 1306.02L1235.65 1302.38C1226.91 1308.16 1226.65 1308.38 1217.1 1316.61L1216.74 1316.92C1216.74 1311.7 1216.74 1309.33 1216.74 1306.02Z" stroke="black"/>
<path d="M1266.46 1434.94L1216.74 1412.35C1216.74 1412.35 1218.26 1399.88 1216.74 1381.86L1235.01 1378.85L1234.86 1391.18L1294.11 1423.73L1266.46 1434.94Z" stroke="black"/>
<path d="M1311.72 1377.13C1311.72 1377.13 1372.97 1397.44 1396.08 1467.32L1406.22 1471.83L1373.54 1481.97L1320.56 1424.84L1283.13 1399.93" fill="#E2E2E2"/>
<path d="M1334.26 1497.74C1350.56 1386.36 1294.07 1381.93 1294.07 1381.93L1267.96 1424.84L1293.83 1423.74L1300.91 1509.9L1339.25 1506.38L1334.26 1497.74Z" fill="#EDEEEF"/>
<path d="M1334.26 1497.74C1350.56 1386.36 1294.07 1381.93 1294.07 1381.93" stroke="black" stroke-width="1.5" stroke-linecap="round" stroke-linejoin="round"/>
<path d="M1281.02 1366.78L1219.36 1381.93C1219.36 1381.93 1215.28 1429.23 1281.02 1424.84L1316.62 1375.01L1281.02 1366.78Z" fill="#EDEEEF"/>
<path d="M1281.02 1424.84L1316.62 1375.01" stroke="black" stroke-width="1.5" stroke-linecap="round" stroke-linejoin="round"/>
<path d="M1219.36 1381.93C1219.36 1381.93 1215.28 1429.23 1281.02 1424.84" stroke="black" stroke-width="1.5" stroke-linecap="round" stroke-linejoin="round"/>
<path d="M1237.93 1273.46V1280.4C1237.93 1285.77 1241.59 1290.45 1246.81 1291.73L1257.86 1294.45V1267.3L1248.67 1265.04C1246.08 1264.4 1243.35 1264.99 1241.25 1266.64C1239.15 1268.28 1237.93 1270.8 1237.93 1273.46V1273.46Z" fill="#EDEEEF"/>
<path d="M1237.93 1280.4C1237.93 1285.77 1241.59 1290.45 1246.81 1291.73L1257.86 1294.45" stroke="black" stroke-width="1.5" stroke-linecap="round" stroke-linejoin="round"/>
<path d="M1249.19 1279.03C1249.48 1279.03 1249.72 1278.79 1249.72 1278.49C1249.72 1278.2 1249.48 1277.96 1249.19 1277.96C1248.89 1277.96 1248.65 1278.2 1248.65 1278.49C1248.65 1278.79 1248.89 1279.03 1249.19 1279.03Z" fill="black"/>
<path d="M1241 1279.03C1241.29 1279.03 1241.53 1278.79 1241.53 1278.49C1241.53 1278.2 1241.29 1277.96 1241 1277.96C1240.71 1277.96 1240.47 1278.2 1240.47 1278.49C1240.47 1278.79 1240.71 1279.03 1241 1279.03Z" fill="black"/>
<path d="M1243.4 1281.67V1273.46H1239.29" stroke="black" stroke-width="1.5" stroke-linecap="round" stroke-linejoin="round"/>
<path d="M1250.19 1273.46H1246.07" stroke="black" stroke-width="1.5" stroke-linecap="round" stroke-linejoin="round"/>
<path d="M1256.54 1277.67V1280.52C1258.08 1280.52 1259.33 1279.27 1259.33 1277.73C1259.33 1277.65 1259.33 1277.56 1259.32 1277.48C1259.16 1275.75 1256.54 1275.93 1256.54 1277.67Z" fill="#EDEEEF"/>
<path d="M1256.54 1280.52C1258.08 1280.52 1259.33 1279.27 1259.33 1277.73" stroke="black" stroke-width="1.5" stroke-linecap="round" stroke-linejoin="round"/>
<path d="M1245.65 1282.63C1246 1282.98 1246.47 1283.17 1246.96 1283.17C1247.44 1283.17 1247.91 1282.98 1248.26 1282.63" stroke="#DC911B" stroke-width="1.5" stroke-linecap="round" stroke-linejoin="round"/>
<path d="M1243.4 1281.68L1245.2 1282.12" stroke="black" stroke-width="1.5" stroke-linecap="round" stroke-linejoin="round"/>
<path d="M1237.35 1270.55L1252.88 1271.3C1252.88 1271.3 1253.77 1276.39 1256.54 1276.93" stroke="black" stroke-width="1.5" stroke-linecap="round" stroke-linejoin="round"/>
<path d="M1237.35 1283.95L1230.34 1281.67C1230.34 1281.67 1230.71 1255.14 1253.26 1259.15C1253.26 1259.15 1267.54 1259.72 1269.04 1275.13C1270.54 1290.53 1270.31 1291.52 1270.31 1291.52L1257.86 1288.58" stroke="black" stroke-width="1.5" stroke-linecap="round" stroke-linejoin="round"/>
<path d="M1281.02 1323.26V1366.78L1219.36 1381.93V1333.46C1219.36 1316.27 1231.1 1301.31 1247.79 1297.21H1247.79C1255.79 1295.24 1264.25 1297.06 1270.74 1302.15C1277.23 1307.23 1281.02 1315.02 1281.02 1323.26V1323.26Z" fill="#DC911B"/>
<path d="M1237.35 1301.53C1237.35 1301.53 1196.58 1325.87 1181.93 1362.5C1167.27 1399.13 1241.05 1376.6 1241.05 1376.6C1241.05 1376.6 1253.04 1377.39 1257.55 1371.74L1263.02 1371.2L1262.38 1368.61L1216.79 1358.59L1237.93 1339.17" stroke="black" stroke-width="1.5" stroke-linecap="round" stroke-linejoin="round"/>
<path d="M1216.79 1358.59L1233.51 1362.27C1221.31 1357.76 1234.31 1342.5 1234.32 1342.49L1216.79 1358.59Z" fill="black"/>
<path d="M1242.7 1364.29C1242.19 1363.92 1240.78 1363.58 1238.21 1363.3L1242.7 1364.29Z" fill="black"/>
<path d="M1275.73 1307.25L1294.07 1335.05C1294.07 1335.05 1300.2 1301.98 1308.71 1298.98C1317.23 1295.97 1321.24 1294.45 1321.24 1294.45L1322.19 1297.46L1318.23 1301.53C1318.23 1301.53 1322.08 1310 1315.65 1312C1315.65 1312 1334.68 1366.06 1295.9 1370.22" stroke="black" stroke-width="1.5" stroke-linecap="round" stroke-linejoin="round"/>
<path d="M1238.49 1382.76C1270.8 1382.76 1296.99 1408.96 1296.99 1441.26C1296.99 1473.57 1270.8 1499.76 1238.49 1499.76C1206.18 1499.76 1179.99 1473.57 1179.99 1441.26C1179.99 1408.96 1206.18 1382.76 1238.49 1382.76Z" fill="#EDEEEF" stroke="#EDEEEF" stroke-width="1.5"/>
<circle cx="1234.22" cy="1441.74" r="65.926" stroke="black" stroke-width="1.5"/>
<ellipse cx="1230.43" cy="1441.74" rx="10.428" ry="10.428" fill="black"/>
<path d="M701 320.032C840.833 326.532 1124.9 384.132 1142.5 562.532C1160.1 740.932 1247.5 723.402 1311.5 723.902" stroke="black" stroke-width="1.5"/>
<path d="M1571 724.532C1603 754.365 1663.5 844.632 1649.5 967.032C1632 1120.03 1461 1203.03 1304 1207.53C1178.4 1211.13 881.667 1161.03 749 1135.53" stroke="black" stroke-width="1.5"/>
<path d="M366.5 1135.53C317 1143.37 135.5 1135.53 135.5 1353.03C135.5 1471.53 821.937 1815.08 1033 1673.88C1244.5 1532.38 1234 1500.38 1336 1500.38" stroke="black" stroke-width="1.5"/>
<path d="M363 320.612C270 320.612 73.9 292.932 -8.5 70.532" stroke="black" stroke-width="1.5"/>
</svg>
