<svg width="1920" height="312" viewBox="0 0 1920 312" fill="none" xmlns="http://www.w3.org/2000/svg">
<path d="M-7.5 9C22 35.5 477.2 187 717.5 187C1037.5 187 1327.5 81.5 1476 81.5C1594.8 81.5 1826.5 151.833 1927.5 187" stroke="black" stroke-width="1.5"/>
<path d="M656.46 56.8988C656.986 54.5489 656.752 52.0927 655.791 49.8846C653.046 43.4404 645.538 27.4804 638.316 26.9803C629.258 26.3533 632.116 34.3295 635.33 36.2343C637.124 37.3633 639.417 37.3165 641.163 36.1153C641.163 36.1153 649.839 46.6561 648.902 49.9249C648.902 49.9249 643.902 49.9249 645.568 54.6869C647.027 58.8536 654.592 64.9344 656.46 56.8988Z" fill="#DC911B"/>
<path d="M639.32 124.701C639.32 124.701 662.632 205.148 631.029 231.933C599.426 258.718 565.677 271.039 565.677 271.039L562.463 283.36L546.392 244.254L591.39 192.827L610.673 114.081" fill="#E2E2E2"/>
<path d="M607.856 167.114C603.827 167.114 599.975 168.928 596.434 172.229L591.39 192.828L580.467 205.312C577.873 216.253 576.391 228.9 576.391 242.376C576.38 250.198 576.899 258.012 577.943 265.765C590.601 259.81 611.235 248.709 631.029 231.933C633.879 229.492 636.336 226.628 638.316 223.441C634.805 191.041 622.499 167.114 607.856 167.114Z" fill="black"/>
<path d="M629.79 112.64C629.79 112.64 637 230.315 616.637 286.03L620.89 292.279H584.672C584.672 292.279 580.715 142.603 580.715 110.297L629.79 112.64Z" fill="#EDEEEF"/>
<path d="M621.375 21.5937V36.8864L602.43 41.5429V15.7351L621.375 11.0786V21.5937Z" fill="#EDEEEF"/>
<path d="M610.673 26.8842C610.953 26.8842 611.179 26.6574 611.179 26.3776C611.179 26.0979 610.953 25.8711 610.673 25.8711C610.393 25.8711 610.166 26.0979 610.166 26.3776C610.166 26.6574 610.393 26.8842 610.673 26.8842Z" fill="black"/>
<path d="M618.453 26.8842C618.733 26.8842 618.96 26.6574 618.96 26.3776C618.96 26.0979 618.733 25.8711 618.453 25.8711C618.173 25.8711 617.946 26.0979 617.946 26.3776C617.946 26.6574 618.173 26.8842 618.453 26.8842Z" fill="black"/>
<path d="M616.171 29.3994V21.5933H620.081" stroke="black" stroke-width="1.5" stroke-linecap="round" stroke-linejoin="round"/>
<path d="M609.719 21.5931H613.629" stroke="black" stroke-width="1.5" stroke-linecap="round" stroke-linejoin="round"/>
<path d="M603.678 25.5931V28.304C602.215 28.304 601.03 27.1186 601.03 25.6563C601.03 25.575 601.033 25.4947 601.041 25.4153C601.189 23.7711 603.678 23.9423 603.678 25.5931Z" fill="#EDEEEF"/>
<path d="M603.678 28.304C602.215 28.304 601.03 27.1185 601.03 25.6562" stroke="black" stroke-width="1.5" stroke-linecap="round" stroke-linejoin="round"/>
<path d="M614.46 31.3239C612.98 31.3239 611.78 30.1241 611.78 28.644" stroke="#DC911B" stroke-width="1.5" stroke-linecap="round" stroke-linejoin="round"/>
<path d="M621.375 36.8862L602.43 41.5426" stroke="black" stroke-width="1.5" stroke-linecap="round" stroke-linejoin="round"/>
<path d="M616.171 29.4058L614.46 29.8262" stroke="black" stroke-width="1.5" stroke-linecap="round" stroke-linejoin="round"/>
<path d="M580.715 68.928V110.297L639.32 124.701V78.6273C639.32 62.2902 628.167 48.0638 612.302 44.1645H612.302C604.694 42.2945 596.648 44.0257 590.483 48.8596C584.317 53.6934 580.715 61.0932 580.715 68.928V68.928Z" fill="#DC911B"/>
<path d="M629.79 112.64C629.79 112.64 637 230.315 616.637 286.029" stroke="black" stroke-width="1.5" stroke-linecap="round" stroke-linejoin="round"/>
<path d="M604.787 23.5255C604.787 23.5255 608 23.3469 616.171 17.3647V19.6861C616.171 19.6861 620.859 18.3468 622.198 16.0254" stroke="black" stroke-width="1.5" stroke-linecap="round" stroke-linejoin="round"/>
<path d="M622.626 15.1166C622.626 15.1166 632.734 1.73972 604.787 11.0786L607.823 7.7666C607.823 7.7666 592.912 12.5938 601.662 24.2651" stroke="black" stroke-width="1.5" stroke-linecap="round" stroke-linejoin="round"/>
<path d="M621.097 25.1031C621.097 25.1031 624.796 20.1351 623.311 14.0552" stroke="black" stroke-width="1.5" stroke-linecap="round" stroke-linejoin="round"/>
<path d="M586.211 53.1064C586.211 53.1064 549.734 82.544 555.448 120.044C561.163 157.545 598.91 160.045 598.91 160.045L604.788 149.688L580.715 110.297L603.678 86.8297" stroke="black" stroke-width="1.5" stroke-linecap="round" stroke-linejoin="round"/>
<path d="M598.91 160.045L610.969 138.795" stroke="black" stroke-width="1.5" stroke-linecap="round" stroke-linejoin="round"/>
<path d="M628.492 53.1064C628.492 53.1064 640.687 65.8771 646.64 80.163" stroke="black" stroke-width="1.5" stroke-linecap="round" stroke-linejoin="round"/>
<path d="M638.316 109.449C638.316 109.449 642.83 118.973 655.211 122.069C667.506 125.142 680.505 70.2231 652.941 34.9506C652.351 34.1805 651.524 33.6256 650.588 33.3713C648.887 32.9303 646.695 33.5557 647.601 40.401C647.601 40.401 643.782 39.049 645.687 43.4155C647.592 47.782 651.131 64.7213 644.48 75.5376" stroke="black" stroke-width="1.5" stroke-linecap="round" stroke-linejoin="round"/>
<rect x="628" y="81" width="617" height="197" fill="#FFE0B0"/>
<path d="M1199.92 121.345C1199.92 121.345 1132 247.44 1277.55 256.065L1284.55 261.995V220.487L1235.66 205.393L1234.22 105.125" fill="#E2E2E2"/>
<path d="M1235.36 184.6C1223.72 189.429 1214.95 210.542 1214.95 235.857C1214.95 237.128 1214.98 238.388 1215.02 239.637C1226.87 246.888 1242.87 252.309 1264.18 254.877C1265.35 248.605 1265.93 242.237 1265.91 235.857C1265.94 228.513 1265.16 221.189 1263.59 214.016L1235.66 205.393L1235.36 184.6Z" fill="black"/>
<path d="M1208.99 120.463L1251.07 117.581L1258.72 120.697L1262.32 304.475H1223.23L1227.37 297.068L1208.99 120.463Z" fill="#EDEEEF"/>
<path d="M1213.74 32.0821V38.7245C1213.74 43.8606 1217.25 48.3332 1222.24 49.5591L1232.81 52.1571V26.1866L1224.02 24.0264C1221.54 23.4181 1218.93 23.9813 1216.92 25.5538C1214.92 27.1262 1213.74 29.5334 1213.74 32.0821V32.0821Z" fill="#EDEEEF"/>
<path d="M1213.74 38.7246C1213.74 43.8608 1217.25 48.3333 1222.24 49.5592L1232.81 52.1572" stroke="black" stroke-width="1.5" stroke-linecap="round" stroke-linejoin="round"/>
<path d="M1224.51 37.4067C1224.8 37.4067 1225.02 37.1785 1225.02 36.8969C1225.02 36.6154 1224.8 36.3872 1224.51 36.3872C1224.23 36.3872 1224 36.6154 1224 36.8969C1224 37.1785 1224.23 37.4067 1224.51 37.4067Z" fill="black"/>
<path d="M1216.68 37.4067C1216.97 37.4067 1217.19 37.1785 1217.19 36.8969C1217.19 36.6154 1216.97 36.3872 1216.68 36.3872C1216.4 36.3872 1216.18 36.6154 1216.18 36.8969C1216.18 37.1785 1216.4 37.4067 1216.68 37.4067Z" fill="black"/>
<path d="M1218.98 39.9374V32.082H1215.05" stroke="black" stroke-width="1.5" stroke-linecap="round" stroke-linejoin="round"/>
<path d="M1225.47 32.082H1221.54" stroke="black" stroke-width="1.5" stroke-linecap="round" stroke-linejoin="round"/>
<path d="M1231.55 36.1074V38.8353C1233.02 38.8353 1234.22 37.6424 1234.22 36.1709C1234.22 36.0892 1234.21 36.0083 1234.21 35.9284C1234.06 34.2739 1231.55 34.4461 1231.55 36.1074Z" fill="#EDEEEF"/>
<path d="M1231.55 38.8353C1233.02 38.8353 1234.22 37.6424 1234.22 36.1709" stroke="black" stroke-width="1.5" stroke-linecap="round" stroke-linejoin="round"/>
<path d="M1221.13 40.8555C1221.46 41.1863 1221.91 41.3722 1222.38 41.3722C1222.85 41.3722 1223.3 41.1863 1223.63 40.8555" stroke="#DC911B" stroke-width="1.5" stroke-linecap="round" stroke-linejoin="round"/>
<path d="M1218.98 39.9438L1220.7 40.3669" stroke="black" stroke-width="1.5" stroke-linecap="round" stroke-linejoin="round"/>
<path d="M1199.92 79.7152V121.345L1258.9 135.84V89.4757C1258.9 73.0356 1247.67 58.7195 1231.71 54.7956H1231.71C1224.05 52.9138 1215.96 54.656 1209.75 59.5203C1203.55 64.3846 1199.92 71.8311 1199.92 79.7152V79.7152Z" fill="#DC911B"/>
<path d="M1227.37 297.069L1208.99 120.463" stroke="black" stroke-width="1.5" stroke-linecap="round" stroke-linejoin="round"/>
<path d="M1219.84 48.667C1219.84 48.667 1219.84 57.2109 1205.35 56.4415L1202.03 53.1227C1202.03 53.1227 1203.86 15.2929 1229.6 20.2088C1233.67 20.9859 1237.29 23.3952 1239.26 27.0374C1241.47 31.1008 1241.82 36.9999 1232.89 43.3984" stroke="black" stroke-width="1.5" stroke-linecap="round" stroke-linejoin="round"/>
<path d="M1200.78 54.4185C1200.91 54.4185 1204.1 57.7429 1204.1 57.7429" stroke="#DC911B" stroke-width="1.5" stroke-linecap="round" stroke-linejoin="round"/>
<path d="M1213.74 35.5815C1213.74 35.5815 1222.43 33.4252 1225.02 28.124C1225.02 28.124 1227.86 35.4647 1231.55 36.1071" stroke="black" stroke-width="1.5" stroke-linecap="round" stroke-linejoin="round"/>
<path d="M1200.15 56.0811C1200.15 56.0811 1190.98 61.2487 1192.54 73.8277C1193.03 77.9987 1195.13 81.8149 1198.38 84.4696C1200.05 85.874 1202.36 86.2406 1204.39 85.4224C1206.41 84.6042 1207.82 82.7351 1208.04 80.5641C1208.31 78.1162 1208.83 75.6029 1209.79 73.7079C1213.74 65.9209 1201.84 57.7433 1201.84 57.7433" stroke="black" stroke-width="1.5" stroke-linecap="round" stroke-linejoin="round"/>
<path d="M1246.68 62.5791C1246.68 62.5791 1305.51 128.576 1248.37 162.359L1239.02 146.699L1252.32 122.466L1239.02 100.183" stroke="black" stroke-width="1.5" stroke-linecap="round" stroke-linejoin="round"/>
<path d="M1248.37 162.359L1233.79 137.92" stroke="black" stroke-width="1.5" stroke-linecap="round" stroke-linejoin="round"/>
<path d="M1178.05 63.1605C1177.52 60.7957 1177.76 58.324 1178.72 56.102C1181.49 49.6171 1189.04 33.5565 1196.31 33.0533C1205.42 32.4223 1202.55 40.4489 1199.31 42.3656C1197.51 43.5018 1195.2 43.4547 1193.44 42.2458C1193.44 42.2458 1184.71 52.8531 1185.66 56.1426C1185.66 56.1426 1190.69 56.1426 1189.01 60.9346C1187.54 65.1276 1179.93 71.2467 1178.05 63.1605Z" fill="#DC911B"/>
<path d="M1185.29 50.0709C1185.29 50.0709 1192.12 44.2972 1185.29 42.3205C1178.47 40.3438 1163.19 61.5483 1165.71 84.9092C1168.22 108.27 1184.9 123.724 1199.92 110.966" stroke="black" stroke-width="1.5" stroke-linecap="round" stroke-linejoin="round"/>
<path d="M1185.54 65.4941C1185.54 65.4941 1186.65 75.9238 1190.11 82.2133L1193.99 78.8769" stroke="black" stroke-width="1.5" stroke-linecap="round" stroke-linejoin="round"/>
</svg>
