<svg width="381" height="322" viewBox="0 0 381 322" fill="none" xmlns="http://www.w3.org/2000/svg">
<path d="M366.83 31.1305C337.067 31.1305 311.598 18.404 301.125 0.376817C290.652 18.404 265.183 31.1305 235.42 31.1305C231.135 31.132 226.853 30.8635 222.602 30.3265V128.734C222.602 152.014 235.022 173.526 255.183 185.166L301.125 211.691L347.067 185.166C367.228 173.526 379.648 152.014 379.648 128.734V30.3265C375.397 30.8635 371.115 31.132 366.83 31.1305Z" fill="#EDEEEF"/>
<path d="M347.068 185.166C367.229 173.526 379.649 152.014 379.648 128.734V30.3265C375.397 30.8634 371.116 31.132 366.83 31.1305C337.068 31.1305 311.598 18.404 301.125 0.37674V211.691L347.068 185.166Z" fill="#D6D6D6"/>
<path d="M301.125 211.691L347.068 185.166C367.229 173.526 379.649 152.014 379.648 128.734V30.3265C375.397 30.8634 371.116 31.132 366.83 31.1305C337.068 31.1305 311.598 18.404 301.125 0.37674" stroke="black" stroke-width="1.5"/>
<path d="M236.69 303.204H212.918V293.147H188.629V281.26L170.541 265.258H143.151V219.083H107.492V161.935L62.5317 201.71V277.602H38.7594V311.22H28.9402V301.833H11.3695V320.607H248.576V313.72L236.69 303.204Z" fill="#F4F4F4"/>
<path d="M0 320.607H259.946" stroke="black" stroke-width="1.5"/>
<rect x="110.242" y="230.651" width="3.24777" height="2.87314" fill="white"/>
<rect x="118.144" y="230.651" width="3.24777" height="2.87314" fill="white"/>
<rect x="126.048" y="230.651" width="3.24774" height="2.87314" fill="white"/>
<rect x="110.242" y="238.398" width="3.24777" height="2.87323" fill="white"/>
<rect x="118.144" y="238.398" width="3.24777" height="2.87323" fill="white"/>
<rect x="126.048" y="238.398" width="3.24774" height="2.87323" fill="white"/>
<rect x="110.242" y="246.144" width="3.24777" height="2.87314" fill="white"/>
<rect x="118.144" y="246.144" width="3.24777" height="2.87314" fill="white"/>
<rect x="126.048" y="246.144" width="3.24774" height="2.87314" fill="white"/>
<rect x="110.242" y="253.891" width="3.24777" height="2.87311" fill="white"/>
<rect x="118.144" y="253.891" width="3.24777" height="2.87311" fill="white"/>
<rect x="126.048" y="253.891" width="3.24774" height="2.87311" fill="white"/>
<rect x="110.242" y="261.638" width="3.24777" height="2.87317" fill="white"/>
<rect x="118.144" y="261.638" width="3.24777" height="2.87317" fill="white"/>
<rect x="126.048" y="261.638" width="3.24774" height="2.87317" fill="white"/>
<rect x="110.242" y="269.384" width="3.24777" height="2.8732" fill="white"/>
<rect x="118.144" y="269.384" width="3.24777" height="2.8732" fill="white"/>
<rect x="126.048" y="269.384" width="3.24774" height="2.8732" fill="white"/>
<rect x="110.242" y="277.131" width="3.24777" height="2.8732" fill="white"/>
<rect x="118.144" y="277.131" width="3.24777" height="2.8732" fill="white"/>
<rect x="126.048" y="277.131" width="3.24774" height="2.8732" fill="white"/>
<rect x="110.242" y="284.878" width="3.24777" height="2.87314" fill="white"/>
<rect x="118.144" y="284.878" width="3.24777" height="2.87314" fill="white"/>
<rect x="126.048" y="284.878" width="3.24774" height="2.87314" fill="white"/>
<rect x="110.242" y="292.625" width="3.24777" height="2.8732" fill="white"/>
<rect x="118.144" y="292.625" width="3.24777" height="2.8732" fill="white"/>
<rect x="126.048" y="292.625" width="3.24774" height="2.8732" fill="white"/>
<path d="M180.05 130.735L149.782 126.031C149.782 126.031 127.479 232.441 139.448 311.827L135.918 319.657H176.02L187.407 198.568L180.05 130.735Z" fill="#E2E2E2"/>
<path d="M159.922 128.523C159.922 128.523 152.251 253.728 173.917 313.008L169.392 319.657H207.927C207.927 319.657 212.137 160.404 212.137 126.031L159.922 128.523Z" fill="#EDEEEF"/>
<path d="M159.922 128.523C159.922 128.523 152.251 253.728 173.917 313.008L169.392 319.657" stroke="black" stroke-width="1.5"/>
<path d="M187.407 31.6506V47.9222L167.249 52.8764V25.4171L187.407 20.4629V31.6506Z" fill="#EDEEEF"/>
<path d="M176.02 37.2802C176.318 37.2802 176.559 37.0389 176.559 36.7412C176.559 36.4436 176.318 36.2023 176.02 36.2023C175.723 36.2023 175.481 36.4436 175.481 36.7412C175.481 37.0389 175.723 37.2802 176.02 37.2802Z" fill="black"/>
<path d="M184.298 37.2802C184.596 37.2802 184.837 37.0389 184.837 36.7412C184.837 36.4436 184.596 36.2023 184.298 36.2023C184 36.2023 183.759 36.4436 183.759 36.7412C183.759 37.0389 184 37.2802 184.298 37.2802Z" fill="black"/>
<path d="M181.869 39.9564V31.6506H186.03" stroke="black" stroke-width="1.5"/>
<path d="M175.005 31.6506H179.166" stroke="black" stroke-width="1.5"/>
<path d="M168.577 35.9062V38.7906C167.021 38.7906 165.76 37.5293 165.76 35.9734C165.76 35.887 165.764 35.8015 165.772 35.717C165.93 33.9676 168.577 34.1498 168.577 35.9062Z" fill="#EDEEEF"/>
<path d="M168.577 38.7906C167.021 38.7906 165.76 37.5293 165.76 35.9734" stroke="black" stroke-width="1.5"/>
<path d="M180.05 42.0039C178.475 42.0039 177.198 40.7273 177.198 39.1526" stroke="#DC911B" stroke-width="1.5" stroke-linecap="round" stroke-linejoin="round"/>
<path d="M187.407 47.922L167.25 52.8763" stroke="black" stroke-width="1.5"/>
<path d="M181.87 39.9629L180.05 40.4102" stroke="black" stroke-width="1.5" stroke-linecap="round"/>
<path d="M149.782 82.0141V126.031L212.137 141.357V92.3341C212.137 74.9516 200.27 59.8149 183.39 55.666H183.39C175.295 53.6764 166.735 55.5184 160.174 60.6615C153.614 65.8047 149.782 73.678 149.782 82.0141L149.782 82.0141Z" fill="#DC911B"/>
<path d="M187.407 30.2905C187.407 29.6048 194.848 17.4448 176.559 17.1914C158.27 16.9381 167.169 34.4932 167.169 34.4932" stroke="black" stroke-width="1.5"/>
<path d="M168.577 32.4231C168.577 32.4231 171.253 28.4331 171.443 26.8181C171.443 26.8181 184.528 27.0081 186.678 23.9681" stroke="black" stroke-width="1.5"/>
<path d="M165.947 68.0241L157.004 114.598L160.297 123.212L168.577 116.118L168.024 68.3647L170.937 64.1847H163.97L165.947 68.0241Z" fill="black"/>
<path d="M199.545 64.1848C199.545 64.1848 273.283 135.878 193.863 181.098L185.37 167.798L202.603 123.211L186.03 100.158" stroke="black" stroke-width="1.5"/>
<path d="M193.864 181.098L177.363 155.258" stroke="black" stroke-width="1.5"/>
<path d="M154.619 66.5364C154.619 66.5364 118.429 122.659 143.163 165.242" stroke="black" stroke-width="1.5"/>
<path d="M268.862 110.425L273.564 105.723L297.555 129.713L292.853 134.415L268.862 110.425Z" fill="#DC911B"/>
<path d="M340.211 77.6524L344.913 82.3546L292.853 134.415L288.15 129.713L340.211 77.6524Z" fill="#DC911B"/>
<path d="M69.121 2.17047C58.1053 2.1509 49.1595 11.0649 49.1399 22.0806L89.0311 22.1515C89.0507 11.1359 80.1366 2.19007 69.121 2.17047Z" fill="#EDEEEF"/>
<path d="M110.672 10.8185C104.391 10.8073 99.291 15.8895 99.2798 22.1698L122.023 22.2103C122.028 19.1944 120.835 16.2998 118.707 14.1634C116.578 12.0271 113.688 10.8239 110.672 10.8185Z" fill="#EDEEEF"/>
<path d="M89.0681 1.29416C77.5489 1.2737 68.1941 10.5953 68.1736 22.1145L109.888 22.1887C109.909 10.6694 100.587 1.31465 89.0681 1.29416Z" fill="#EDEEEF"/>
<path d="M45.4747 22.0741L127.464 22.22" stroke="black" stroke-width="1.5"/>
<path d="M109.596 45.8803C118.726 45.8641 126.141 53.2527 126.158 62.3833L93.0927 62.4421C93.0764 53.3115 100.465 45.8965 109.596 45.8803Z" fill="#EDEEEF"/>
<path d="M75.1553 53.0484C80.3609 53.0391 84.5884 57.2516 84.5977 62.4572L65.7465 62.4907C65.742 59.9909 66.7308 57.5917 68.4953 55.8209C70.2598 54.0501 72.6555 53.0528 75.1553 53.0484Z" fill="#EDEEEF"/>
<path d="M93.062 45.1539C102.61 45.1369 110.364 52.8633 110.381 62.4113L75.8045 62.4728C75.7875 52.9248 83.5139 45.1709 93.062 45.1539Z" fill="#EDEEEF"/>
<path d="M129.195 62.3779L61.2363 62.4988" stroke="black" stroke-width="1.5"/>
<path d="M323.927 237.746C321.264 235.3 319.238 232.242 318.022 228.836C315.005 220.499 307.088 214.944 298.221 214.944C289.354 214.944 281.437 220.499 278.419 228.836C277.204 232.242 275.177 235.3 272.515 237.746C265.579 244.071 263.667 254.222 267.825 262.637C271.984 271.051 281.21 275.698 290.447 274.03C295.588 273.101 300.853 273.101 305.994 274.03C315.234 275.707 324.468 271.062 328.628 262.643C332.789 254.224 330.871 244.068 323.927 237.746H323.927Z" fill="#DC911B"/>
<path d="M290.447 274.03C295.588 273.101 300.853 273.101 305.994 274.03C312.135 275.138 318.451 273.468 323.241 269.469C328.031 265.47 330.802 259.553 330.807 253.313" stroke="black" stroke-width="1.5"/>
<path d="M256.054 320.607H340.387" stroke="black" stroke-width="1.5"/>
<path d="M298.221 259.421V320.607" stroke="black" stroke-width="1.5"/>
<path d="M307.152 250.49L298.221 259.422L289.289 250.49" stroke="black" stroke-width="1.5"/>
<path d="M262.949 274.279C261.46 272.911 260.327 271.201 259.648 269.297C257.96 264.636 253.534 261.53 248.576 261.53C243.619 261.53 239.192 264.636 237.505 269.297C236.826 271.201 235.693 272.911 234.204 274.279C230.326 277.815 229.257 283.491 231.582 288.195C233.907 292.9 239.066 295.498 244.23 294.565C247.104 294.046 250.048 294.046 252.923 294.565C258.089 295.503 263.251 292.906 265.578 288.199C267.904 283.492 266.831 277.813 262.949 274.279Z" fill="#DC911B"/>
<path d="M244.23 294.565C247.104 294.046 250.048 294.046 252.923 294.565C256.356 295.185 259.888 294.251 262.566 292.015C265.244 289.779 266.793 286.471 266.796 282.982" stroke="black" stroke-width="1.5"/>
<path d="M248.577 286.398V320.607" stroke="black" stroke-width="1.5"/>
<path d="M253.57 281.404L248.576 286.398L243.583 281.404" stroke="black" stroke-width="1.5"/>
</svg>
