<svg width="332" height="306" viewBox="0 0 332 306" fill="none" xmlns="http://www.w3.org/2000/svg">
<path d="M62.355 110.178L30.2266 99.9539L29.2065 303.804H66.3462L62.355 294.884C80.3155 230.477 62.355 110.178 62.355 110.178Z" fill="#DC911B"/>
<path d="M53.0811 235.498C53.0811 187.753 43.388 149.048 31.4309 149.048C30.9407 149.051 30.453 149.118 29.9799 149.246L29.2065 303.804H44.7014C49.7998 287.988 53.0811 263.275 53.0811 235.498Z" fill="black"/>
<path d="M51.7629 112.67C51.7629 112.67 59.434 237.875 37.7678 297.155L42.2935 303.804H3.75774C3.75774 303.804 1.52588e-05 150.488 1.52588e-05 116.115L51.7629 112.67Z" fill="#DC911B"/>
<path d="M43.5795 15.7975V32.0691L23.4225 37.0233V9.56405L43.5795 4.6098V15.7975Z" fill="#EDEEEF"/>
<path d="M30.2267 24.3134C30.2267 24.3134 35.135 22.6984 36.75 25.1684C36.75 25.1684 38.7982 22.8706 41.4367 24.7252" stroke="#DC911B" stroke-width="1.5" stroke-linecap="round" stroke-linejoin="round"/>
<path d="M32.193 21.4271C32.4906 21.4271 32.7319 21.1858 32.7319 20.8881C32.7319 20.5905 32.4906 20.3492 32.193 20.3492C31.8953 20.3492 31.654 20.5905 31.654 20.8881C31.654 21.1858 31.8953 21.4271 32.193 21.4271Z" fill="black"/>
<path d="M40.471 21.4271C40.7686 21.4271 41.0099 21.1858 41.0099 20.8881C41.0099 20.5905 40.7686 20.3492 40.471 20.3492C40.1733 20.3492 39.932 20.5905 39.932 20.8881C39.932 21.1858 40.1733 21.4271 40.471 21.4271Z" fill="black"/>
<path d="M38.0426 24.1033V15.7974H42.2036" stroke="black" stroke-width="1.5"/>
<path d="M31.1774 15.7975H35.3384" stroke="black" stroke-width="1.5"/>
<path d="M42.8509 14.4374H42.8509" stroke="black" stroke-width="1.5"/>
<path d="M24.7499 20.0532V22.9375C23.194 22.9375 21.9328 21.6762 21.9328 20.1203C21.9328 20.0339 21.9366 19.9484 21.9443 19.8639C22.1021 18.1146 24.7499 18.2967 24.7499 20.0532Z" fill="#EDEEEF"/>
<path d="M24.7499 22.9374C23.194 22.9374 21.9328 21.6762 21.9328 20.1203" stroke="black" stroke-width="1.5"/>
<path d="M35.5937 26.1508C34.7135 26.1508 34 25.4373 34 24.5571" stroke="#DC911B" stroke-width="1.5" stroke-linecap="round" stroke-linejoin="round"/>
<path d="M29.2064 35.6015L23.4221 37.0233" stroke="black" stroke-width="1.5"/>
<path d="M38.0424 24.1097L36.2225 24.557" stroke="black" stroke-width="1.5" stroke-linecap="round"/>
<path d="M62.3551 66.1609V110.177L0 125.503V76.4809C3.90707e-06 59.0984 11.8669 43.9617 28.747 39.8129H28.747C36.8422 37.8232 45.4026 39.6652 51.9629 44.8084C58.5232 49.9515 62.3551 57.8249 62.3551 66.1609L62.3551 66.1609Z" fill="#EDEEEF"/>
<path d="M25.7411 20.888C25.7411 20.888 22.7011 30.8682 29.7944 36.0616C36.3987 40.8968 46.8088 38.0659 44.3456 26.7558C43.8341 24.3955 43.5774 21.9872 43.5797 19.5722V18.8983" stroke="#DC911B" stroke-width="1.5" stroke-linecap="round" stroke-linejoin="round"/>
<path d="M23.3414 18.642C23.3414 18.642 16.6359 6.36184 26.9613 4.14924C26.9613 4.14924 31.16 -1.09542 37.1325 1.44496C43.105 3.98534 45.9732 2.20218 46.0551 4.60979C46.137 7.01741 46.4306 11.0329 43.5796 13.0816" stroke="#DC911B" stroke-width="1.5" stroke-linecap="round" stroke-linejoin="round"/>
<path d="M27.5141 18.6401L29.2065 11.7417C29.2065 11.7417 41.5313 11.9317 43.5794 8.57501" stroke="#DC911B" stroke-width="1.5" stroke-linecap="round" stroke-linejoin="round"/>
<path d="M51.7628 112.67C51.7628 112.67 59.4339 237.875 37.7677 297.155L42.2934 303.804" stroke="black" stroke-width="1.5"/>
<path d="M12.7787 48.1642C12.7787 48.1642 2.30751 89.5151 14.9742 104.968C27.6408 120.422 86.9208 111.302 104.147 94.5818C104.147 94.5818 110.227 93.0618 111.494 90.0218C111.494 90.0218 117.321 94.3284 117.067 91.5418C116.814 88.7551 114.787 80.0709 104.401 82.2597C94.0141 84.4484 43.5795 85.4618 43.5795 85.4618L44.715 63.6751" stroke="black" stroke-width="1.5"/>
<path d="M59.4807 53.9712C59.4807 53.9712 67.0992 68.7376 66.1167 84.8264" stroke="black" stroke-width="1.5"/>
<path d="M63.645 119.722C63.645 119.722 83.9423 127.784 92.5249 102.189" stroke="black" stroke-width="1.5"/>
<path d="M73.0027 84.5679C73.0027 84.5679 94.5093 73.4598 97.8143 78.1151L101.119 82.7704" stroke="black" stroke-width="1.5"/>
<path d="M273.999 0.750488H135.598V89.1242L91.0954 133.626V303.804H73.0026" stroke="black" stroke-width="1.5"/>
<path d="M96.0067 304.754H331.956" stroke="black" stroke-width="1.5"/>
<path d="M304.05 302.897C304.05 302.897 308.116 295.704 297.795 294.141C291.663 293.193 285.387 293.95 279.656 296.33C279.656 296.33 286.849 287.573 275.591 283.82C264.332 280.067 252.761 288.824 252.761 288.824C252.761 288.824 264.019 267.871 255.263 266.307C246.506 264.743 241.815 273.813 241.815 273.813C241.815 273.813 242.753 247.855 224.614 247.23C206.476 246.604 208.352 280.38 208.352 280.38C208.352 280.38 200.534 265.369 187.398 264.743C174.263 264.118 180.831 289.889 180.831 289.889C180.831 289.889 178.329 283.82 169.572 283.195C160.816 282.569 161.441 289.909 161.441 289.909C161.441 289.909 150.183 274.125 137.673 275.064C125.163 276.002 130.48 291.639 130.48 291.639C117.658 290.7 114.843 304.754 114.843 304.754H313.119L304.05 302.897Z" fill="black"/>
<rect x="141.602" y="150.645" width="152.029" height="88.7808" fill="black"/>
<rect x="121.969" y="131.013" width="152.029" height="88.7808" fill="#EDEEEF"/>
<path d="M273.999 131.061V219.842L121.969 219.745" stroke="black" stroke-width="1.5"/>
<path d="M139.108 208.424C142.257 208.424 144.81 205.872 144.81 202.723C144.81 199.574 142.257 197.021 139.108 197.021C135.959 197.021 133.406 199.574 133.406 202.723C133.406 205.872 135.959 208.424 139.108 208.424Z" fill="#D6D6D6"/>
<path d="M256.859 153.785C260.008 153.785 262.561 151.232 262.561 148.083C262.561 144.934 260.008 142.382 256.859 142.382C253.71 142.382 251.158 144.934 251.158 148.083C251.158 151.232 253.71 153.785 256.859 153.785Z" fill="#D6D6D6"/>
<path d="M256.859 208.424C260.008 208.424 262.561 205.872 262.561 202.723C262.561 199.574 260.008 197.021 256.859 197.021C253.71 197.021 251.158 199.574 251.158 202.723C251.158 205.872 253.71 208.424 256.859 208.424Z" fill="#D6D6D6"/>
<path d="M139.108 153.785C142.257 153.785 144.81 151.232 144.81 148.083C144.81 144.934 142.257 142.382 139.108 142.382C135.959 142.382 133.406 144.934 133.406 148.083C133.406 151.232 135.959 153.785 139.108 153.785Z" fill="#D6D6D6"/>
</svg>
