<svg width="389" height="311" viewBox="0 0 389 311" fill="none" xmlns="http://www.w3.org/2000/svg">
<path d="M237.445 163.873C277.626 163.873 310.199 131.3 310.199 91.119C310.199 50.9383 277.626 18.3654 237.445 18.3654C197.264 18.3654 164.691 50.9383 164.691 91.119C164.691 131.3 197.264 163.873 237.445 163.873Z" fill="#EDEEEF"/>
<path fill-rule="evenodd" clip-rule="evenodd" d="M237.445 163.873C277.626 163.873 310.199 131.3 310.199 91.119C310.199 50.9383 277.626 18.3654 237.445 18.3654C197.264 18.3654 164.691 50.9383 164.691 91.119C164.691 131.3 197.264 163.873 237.445 163.873Z" stroke="black" stroke-width="1.5"/>
<rect x="210.997" width="52.8956" height="182.238" fill="#EDEEEF"/>
<path d="M145.309 68.4641L171.757 22.6552L329.58 113.774L303.132 159.583L145.309 68.4641Z" fill="#EDEEEF"/>
<path d="M171.757 159.583L145.309 113.774L303.132 22.655L329.58 68.4639L171.757 159.583Z" fill="#EDEEEF"/>
<path d="M237.445 109.308C247.49 109.308 255.633 101.164 255.633 91.1192C255.633 81.074 247.49 72.9308 237.445 72.9308C227.4 72.9308 219.256 81.074 219.256 91.1192C219.256 101.164 227.4 109.308 237.445 109.308Z" fill="#DC911B"/>
<path d="M219.257 91.1192C219.257 81.074 227.4 72.9308 237.445 72.9308" stroke="black" stroke-width="1.5"/>
<path d="M179.202 294.775C172.933 229.229 134.005 132.247 134.005 132.247L99.9756 111.245L103.737 163.682L108.808 213.734L151.844 310.547L191.172 298.195L179.202 294.775Z" fill="#E2E2E2"/>
<path d="M123.864 119.413C123.864 119.413 131.535 244.618 109.869 303.898L114.395 310.548H75.8591C75.8591 310.548 71.6492 151.294 71.6492 116.921L123.864 119.413Z" fill="#EDEEEF"/>
<path d="M110.184 22.541V38.8126L90.0266 43.7669V16.3076L110.184 11.3533V22.541Z" fill="#EDEEEF"/>
<path d="M98.797 28.1706C99.0947 28.1706 99.336 27.9293 99.336 27.6316C99.336 27.334 99.0947 27.0927 98.797 27.0927C98.4994 27.0927 98.2581 27.334 98.2581 27.6316C98.2581 27.9293 98.4994 28.1706 98.797 28.1706Z" fill="black"/>
<path d="M107.075 28.1706C107.373 28.1706 107.614 27.9293 107.614 27.6316C107.614 27.334 107.373 27.0927 107.075 27.0927C106.778 27.0927 106.536 27.334 106.536 27.6316C106.536 27.9293 106.778 28.1706 107.075 28.1706Z" fill="black"/>
<path d="M104.646 30.8469V22.541H108.807" stroke="black" stroke-width="1.5"/>
<path d="M97.7821 22.541H101.943" stroke="black" stroke-width="1.5"/>
<path d="M91.3541 26.7967V29.681C89.7982 29.681 88.5369 28.4197 88.5369 26.8638C88.5369 26.7774 88.5408 26.6919 88.5484 26.6074C88.7063 24.8581 91.3541 25.0402 91.3541 26.7967Z" fill="#EDEEEF"/>
<path d="M91.3541 29.6811C89.7982 29.6811 88.5369 28.4198 88.5369 26.8639" stroke="black" stroke-width="1.5"/>
<path d="M102.827 32.8943C101.252 32.8943 99.9756 31.6178 99.9756 30.043" stroke="#FF6498" stroke-width="1.5" stroke-linecap="round" stroke-linejoin="round"/>
<path d="M110.184 38.8125L90.0265 43.7668" stroke="black" stroke-width="1.5"/>
<path d="M104.647 30.8534L102.827 31.3006" stroke="black" stroke-width="1.5" stroke-linecap="round"/>
<path d="M110.868 15.4781C110.868 15.4781 105.849 19.2148 95.8418 18.0748C95.8418 18.0748 95.8418 24.6728 92.2952 26.6938" stroke="black" stroke-width="1.5"/>
<path d="M110.868 23.9649C110.868 23.9649 119.043 13.3249 107.221 10.3482C95.3985 7.37153 89.9518 13.1982 89.9518 13.1982C89.9518 13.1982 78.7685 15.0349 90.6302 35.4915" stroke="black" stroke-width="1.5"/>
<path d="M71.6492 72.9046V116.921L134.004 132.247V83.2246C134.004 65.8421 122.137 50.7053 105.257 46.5565H105.257C97.1621 44.5669 88.6017 46.4089 82.0414 51.552C75.4811 56.6951 71.6492 64.5685 71.6492 72.9045L71.6492 72.9046Z" fill="#DC911B"/>
<path d="M123.864 119.413C123.864 119.413 131.535 244.618 109.869 303.898" stroke="black" stroke-width="1.5"/>
<path d="M78.1951 55.2248C78.1951 55.2248 44.2231 100.297 58.1852 126.882C72.1474 153.467 139.505 113.455 140.265 106.362C141.025 99.2683 125.183 103.068 125.183 103.068C125.183 103.068 127.092 90.1483 118.985 102.815L88.5373 106.108L98.4161 82.295" stroke="black" stroke-width="1.5"/>
<path d="M91.8507 98.1204L88.537 106.108L111.362 103.64C106.056 100.859 99.3317 98.8977 91.8507 98.1204Z" fill="black"/>
<path d="M71.838 135.612C71.8898 139.013 71.951 142.682 72.0204 146.574C88.1062 146.442 109.023 137.743 118.464 128.427L118.468 128.428C118.588 128.309 118.703 128.19 118.82 128.072C118.851 128.04 118.882 128.008 118.913 127.977C119.072 127.813 119.226 127.65 119.378 127.486C119.405 127.456 119.433 127.427 119.46 127.397C119.613 127.231 119.76 127.065 119.905 126.898C119.929 126.871 119.953 126.845 119.976 126.818C120.122 126.648 120.263 126.479 120.4 126.31C120.42 126.286 120.44 126.262 120.459 126.238C120.599 126.065 120.734 125.891 120.865 125.718C120.88 125.699 120.895 125.679 120.91 125.659C121.043 125.482 121.171 125.305 121.294 125.128C121.305 125.112 121.316 125.097 121.327 125.081C121.452 124.9 121.572 124.72 121.686 124.539C121.694 124.527 121.702 124.515 121.71 124.503C121.827 124.319 121.938 124.135 122.044 123.951L122.058 123.927C122.165 123.74 122.266 123.553 122.362 123.367L122.37 123.352C122.467 123.162 122.558 122.973 122.642 122.784L122.645 122.779C123.088 121.827 123.363 120.806 123.458 119.761C108.457 128.502 86.6394 137.61 71.838 135.612Z" fill="black"/>
<path d="M115.869 103.152L116.371 101.615C117.589 97.8916 120.772 95.1518 124.635 94.5023L145.555 90.9849C148.936 90.4166 152.276 92.1881 153.702 95.305V95.305C153.771 95.4553 153.931 95.5419 154.094 95.5176L197.772 89.0032L198.323 87.1312C198.553 86.3522 199.315 85.856 200.12 85.9616L208.962 87.1212C209.734 87.2225 210.312 87.8807 210.312 88.6596V89.725C210.312 90.3625 209.922 90.9351 209.329 91.1687L201.877 94.1028C200.867 94.5004 199.716 94.1936 199.038 93.3461L198.152 92.2382L154.441 99.8073C154.328 99.8268 154.23 99.8974 154.176 99.9985L154.012 100.308C151.169 105.653 146.041 109.407 140.088 110.504L136.069 111.245" stroke="black" stroke-width="1.5"/>
<path d="M113.622 49.6978C113.622 49.6978 131.462 57.2783 157.682 94.4758" stroke="black" stroke-width="1.5"/>
<path d="M134.004 120.802C134.004 120.802 164.331 131.442 172.691 123.588C181.052 115.735 183.585 94.4758 183.585 94.4758" stroke="black" stroke-width="1.5"/>
<path d="M183.585 91.1191C183.585 91.1191 185.422 72.8582 185.232 67.5382C185.232 67.5382 188.371 69.2482 191.171 68.2982C191.171 68.2982 193.021 71.3382 194.351 71.1482C195.681 70.9582 195.111 64.6882 189.981 58.2282C184.851 51.7682 161.999 51.8099 155.28 91.1191" stroke="black" stroke-width="1.5"/>
<path d="M81.3405 267.325C79.6812 262.679 74.8205 268.816 74.8205 268.816C74.8205 268.816 80.6768 256.374 74.8205 253.554C71.9316 252.162 70.4114 253.799 69.612 255.815C72.6085 237.725 73.2551 202.835 61.1607 201.62C47.9497 200.292 52.4699 233.809 52.4699 233.809C52.4699 233.809 48.8196 224.185 44.174 228.499C39.5284 232.813 48.4877 261.02 48.4877 261.02C47.4922 258.034 42.1827 255.711 40.1916 261.02C38.2005 266.33 45.833 277.612 45.833 277.612L72.0488 281.926C72.0488 281.926 82.9997 271.971 81.3405 267.325Z" fill="black"/>
<path d="M79.3899 309.803H41.8511L33.55 276.258H87.691L79.3899 309.803Z" fill="#DC911B"/>
<path d="M0 309.803H125.183" stroke="black" stroke-width="1.5"/>
<path d="M33.5497 276.258H87.6907" stroke="black" stroke-width="1.5"/>
<path d="M382.915 309.803H245.196L297.997 192.268H382.915V309.803Z" fill="black"/>
<rect x="188.229" y="293.013" width="89.8164" height="16.7906" fill="#EDEEEF"/>
<rect x="203.226" y="276.222" width="89.8165" height="16.7908" fill="#EDEEEF"/>
<rect x="218.223" y="259.431" width="89.8165" height="16.7908" fill="#EDEEEF"/>
<rect x="233.22" y="242.64" width="89.8164" height="16.7906" fill="#EDEEEF"/>
<rect x="248.218" y="225.849" width="89.8165" height="16.7907" fill="#EDEEEF"/>
<rect x="263.215" y="209.059" width="89.8163" height="16.7907" fill="#EDEEEF"/>
<rect x="278.212" y="192.268" width="89.8164" height="16.7907" fill="#EDEEEF"/>
<path d="M188.23 293.012H278.046V309.803H188.23" stroke="black" stroke-width="1.5"/>
<path d="M203.227 276.222H293.043V293.012H203.227" stroke="black" stroke-width="1.5"/>
<path d="M218.224 259.431H308.04V276.222H218.224" stroke="black" stroke-width="1.5"/>
<path d="M233.22 242.64H323.037V259.431H233.22" stroke="black" stroke-width="1.5"/>
<path d="M248.218 225.85H338.034V242.64H248.218" stroke="black" stroke-width="1.5"/>
<path d="M263.215 209.059H353.031V225.85" stroke="black" stroke-width="1.5"/>
<path d="M278.212 192.268H368.028V209.059H278.212" stroke="black" stroke-width="1.5"/>
<path d="M182.901 309.803H388.244" stroke="black" stroke-width="1.5"/>
</svg>
