<svg width="435" height="323" viewBox="0 0 435 323" fill="none" xmlns="http://www.w3.org/2000/svg">
<rect x="189.908" y="14.6562" width="234.172" height="145.31" fill="#EDEEEF"/>
<rect x="254.328" y="6.70459" width="105.332" height="18.4989" fill="#FF6498"/>
<path d="M306.994 14.2532C310.94 14.2532 314.14 11.0625 314.14 7.12661C314.14 3.19069 310.94 0 306.994 0C303.047 0 299.848 3.19069 299.848 7.12661C299.848 11.0625 303.047 14.2532 306.994 14.2532Z" fill="#FF6498"/>
<rect x="254.328" y="6.70459" width="105.332" height="18.4989" fill="#DC911B"/>
<path d="M306.994 14.2532C310.94 14.2532 314.14 11.0625 314.14 7.12661C314.14 3.19069 310.94 0 306.994 0C303.047 0 299.848 3.19069 299.848 7.12661C299.848 11.0625 303.047 14.2532 306.994 14.2532Z" fill="#DC911B"/>
<path d="M359.66 6.70447V25.2034H254.328" stroke="black" stroke-width="1.5" stroke-linecap="round" stroke-linejoin="round"/>
<path d="M424.08 14.6564V159.966H189.908" stroke="black" stroke-width="1.5" stroke-linecap="round" stroke-linejoin="round"/>
<path d="M180.252 256.665H433.735" stroke="black" stroke-width="1.5" stroke-linecap="round" stroke-linejoin="round"/>
<path d="M244.543 159.966L206.241 256.665" stroke="black" stroke-width="1.5" stroke-linecap="round" stroke-linejoin="round"/>
<path d="M369.444 159.966L407.746 256.665" stroke="black" stroke-width="1.5" stroke-linecap="round" stroke-linejoin="round"/>
<path d="M218.243 223.122H395.744" stroke="black" stroke-width="1.5" stroke-linecap="round" stroke-linejoin="round"/>
<path d="M81.7378 62.458L100.646 58.824C91.906 64.5987 91.6453 64.8233 82.0957 73.0516L81.7378 73.36C81.7378 68.146 81.7376 65.776 81.7378 62.458Z" fill="black"/>
<path d="M131.456 191.386L81.7378 168.792C81.7378 168.792 83.2597 156.323 81.7378 138.298L100.011 135.296L99.8561 147.62L159.106 180.168L131.456 191.386Z" fill="black"/>
<path d="M81.7378 62.458L100.646 58.824C91.906 64.5987 91.6453 64.8233 82.0957 73.0516L81.7378 73.36C81.7378 68.146 81.7376 65.776 81.7378 62.458Z" stroke="black"/>
<path d="M131.456 191.386L81.7378 168.792C81.7378 168.792 83.2597 156.323 81.7378 138.298L100.011 135.296L99.8561 147.62L159.106 180.168L131.456 191.386Z" stroke="black"/>
<path d="M176.72 133.57C176.72 133.57 237.973 153.883 261.078 223.764L271.223 228.272L238.536 238.416L185.562 181.286L148.127 156.367" fill="#E2E2E2"/>
<path d="M199.264 254.177C215.564 142.798 159.075 138.374 159.075 138.374L132.965 181.287L158.826 180.177L165.913 266.342L204.252 262.819L199.264 254.177Z" fill="#EDEEEF"/>
<path d="M199.264 254.177C215.564 142.798 159.075 138.374 159.075 138.374" stroke="black" stroke-width="1.5" stroke-linecap="round" stroke-linejoin="round"/>
<path d="M146.016 123.22L84.3624 138.374C84.3624 138.374 80.2847 185.67 146.016 181.287L181.617 131.448L146.016 123.22Z" fill="#EDEEEF"/>
<path d="M146.016 181.286L181.617 131.448" stroke="black" stroke-width="1.5" stroke-linecap="round" stroke-linejoin="round"/>
<path d="M84.3624 138.374C84.3624 138.374 80.2847 185.67 146.016 181.287" stroke="black" stroke-width="1.5" stroke-linecap="round" stroke-linejoin="round"/>
<path d="M102.927 29.9024V36.8465C102.927 42.2159 106.592 46.8917 111.807 48.1732L122.857 50.8892V23.7391L113.669 21.4808C111.081 20.8449 108.345 21.4336 106.248 23.0775C104.152 24.7214 102.927 27.2379 102.927 29.9023V29.9024Z" fill="#EDEEEF"/>
<path d="M102.927 36.8466C102.927 42.216 106.592 46.8917 111.807 48.1733L122.857 50.8893" stroke="black" stroke-width="1.5" stroke-linecap="round" stroke-linejoin="round"/>
<path d="M114.185 35.4687C114.479 35.4687 114.718 35.2302 114.718 34.9358C114.718 34.6415 114.479 34.403 114.185 34.403C113.891 34.403 113.652 34.6415 113.652 34.9358C113.652 35.2302 113.891 35.4687 114.185 35.4687Z" fill="black"/>
<path d="M106 35.4687C106.295 35.4687 106.533 35.2302 106.533 34.9358C106.533 34.6415 106.295 34.403 106 34.403C105.706 34.403 105.467 34.6415 105.467 34.9358C105.467 35.2302 105.706 35.4687 106 35.4687Z" fill="black"/>
<path d="M108.402 38.1148V29.9026H104.288" stroke="black" stroke-width="1.5" stroke-linecap="round" stroke-linejoin="round"/>
<path d="M115.189 29.9025H111.075" stroke="black" stroke-width="1.5" stroke-linecap="round" stroke-linejoin="round"/>
<path d="M121.544 34.1102V36.9621C123.083 36.9621 124.33 35.715 124.33 34.1766C124.33 34.0912 124.326 34.0067 124.318 33.9231C124.162 32.1934 121.544 32.3735 121.544 34.1102Z" fill="#EDEEEF"/>
<path d="M121.544 36.962C123.083 36.962 124.33 35.7149 124.33 34.1765" stroke="black" stroke-width="1.5" stroke-linecap="round" stroke-linejoin="round"/>
<path d="M110.651 39.0742C110.997 39.4201 111.466 39.6144 111.955 39.6144C112.444 39.6144 112.914 39.4201 113.259 39.0742" stroke="#DC911B" stroke-width="1.5" stroke-linecap="round" stroke-linejoin="round"/>
<path d="M108.402 38.1212L110.201 38.5635" stroke="black" stroke-width="1.5" stroke-linecap="round" stroke-linejoin="round"/>
<path d="M102.352 26.9895L117.882 27.7409C117.882 27.7409 118.77 32.8304 121.544 33.3768" stroke="black" stroke-width="1.5" stroke-linecap="round" stroke-linejoin="round"/>
<path d="M102.352 40.3902L95.3385 38.1147C95.3385 38.1147 95.7143 11.5848 118.258 15.5925C118.258 15.5925 132.535 16.1664 134.038 31.5711C135.541 46.9758 135.306 47.9621 135.306 47.9621L122.857 45.0242" stroke="black" stroke-width="1.5" stroke-linecap="round" stroke-linejoin="round"/>
<path d="M146.016 79.6992V123.22L84.3623 138.374V89.9031C84.3623 72.7162 96.0957 57.7498 112.786 53.6477H112.786C120.79 51.6804 129.254 53.5017 135.74 58.5869C142.227 63.6722 146.016 71.457 146.016 79.6992V79.6992Z" fill="#DC911B"/>
<path d="M102.352 57.9692C102.352 57.9692 61.5793 82.311 46.9268 118.942C32.2743 155.573 106.047 133.044 106.047 133.044C106.047 133.044 118.045 133.828 122.554 128.184L128.023 127.643L127.375 125.053L81.7876 115.034L102.927 95.6166" stroke="black" stroke-width="1.5" stroke-linecap="round" stroke-linejoin="round"/>
<path d="M81.7875 115.034L98.5072 118.709C86.3096 114.198 99.312 98.9377 99.3152 98.934L81.7875 115.034Z" fill="black"/>
<path d="M107.702 120.73C107.191 120.361 105.782 120.026 103.215 119.743L107.702 120.73Z" fill="black"/>
<path d="M140.726 63.6938L159.075 91.4886C159.075 91.4886 165.198 58.425 173.715 55.4192C182.231 52.4134 186.239 50.8893 186.239 50.8893L187.192 53.8973L183.233 57.9692C183.233 57.9692 187.076 66.4404 180.646 68.4443C180.646 68.4443 199.679 122.505 160.897 126.66" stroke="black" stroke-width="1.5" stroke-linecap="round" stroke-linejoin="round"/>
<path d="M103.49 139.206C135.799 139.206 161.99 165.397 161.99 197.706C161.99 230.015 135.799 256.206 103.49 256.206C71.1812 256.206 44.9899 230.015 44.9899 197.706C44.9899 165.397 71.1812 139.206 103.49 139.206Z" fill="#EDEEEF" stroke="#EDEEEF" stroke-width="1.5"/>
<circle cx="99.2239" cy="198.18" r="65.926" stroke="black" stroke-width="1.5"/>
<ellipse cx="95.4319" cy="198.18" rx="10.428" ry="10.428" fill="black"/>
</svg>
